# File created by Blade
# Date/Time:  Wed Jan 21 17:41:14 2015
# Frame Rate: 120.000 fps
#------------------------------------------------------
:FULLY-SPECIFIED
:DEGREES
252
root 11.769836 34.690215 -23.376944 -152.455828 87.463544 -162.451218
Spine 8.011400 0.417431 -1.976170
Head 8.341293 -5.053018 0.382328
LeftShoulder -6.756883 -50.559301 33.395877
LeftArm 58.837843 -16.436161 -5.506908
LeftForeArm 0.640907 -0.000000 -3.800472
LeftHand -5.605664 0.000000 14.180503
LeftHandThumb1 -26.253704 0.000000 33.147579
RightShoulder -4.761973 13.557063 -25.013504
RightArm 58.529179 58.240848 11.344590
RightForeArm -32.035417 0.000000 13.314738
RightHand -10.564638 -0.000000 -19.902988
RightHandThumb1 -24.326973 -0.000000 -32.862282
LeftUpLeg -26.564450 4.042272 -2.152181
LeftLeg 28.817876 -0.000000 -0.000000
LeftFoot -28.786827 26.548136 -13.377682
LeftToeBase 23.306586 -0.000000 -0.000000
RightUpLeg -26.645771 -2.591449 2.724478
RightLeg 29.486958 -0.000000 -0.000000
RightFoot -30.249661 -26.501531 16.884277
RightToeBase 23.823505 -0.000000 -0.000000
253
root 11.662610 34.788108 -23.370087 -152.781781 87.398397 -163.245485
Spine 8.511768 0.381120 -2.016857
Head 8.617401 -5.117519 0.433608
LeftShoulder -6.461783 -50.646538 33.338270
LeftArm 58.724087 -16.109811 -5.519644
LeftForeArm 0.871118 -0.000000 -3.978391
LeftHand -5.503617 0.000000 13.787531
LeftHandThumb1 -26.253704 0.000000 33.147579
RightShoulder -4.529702 13.335282 -24.953622
RightArm 58.165867 58.129201 11.026483
RightForeArm -31.865403 -0.000000 13.094496
RightHand -10.350304 -0.000000 -19.837470
RightHandThumb1 -24.326973 -0.000000 -32.862282
LeftUpLeg -26.634022 3.915498 -2.179192
LeftLeg 27.660225 -0.000000 -0.000000
LeftFoot -27.895562 26.601084 -13.324145
LeftToeBase 23.096574 -0.000000 -0.000000
RightUpLeg -26.693430 -2.641850 2.748987
RightLeg 28.305029 -0.000000 -0.000000
RightFoot -29.379767 -26.617060 16.774878
RightToeBase 23.694544 -0.000000 -0.000000
254
root 11.553710 34.880664 -23.380068 -152.471716 87.454485 -163.503874
Spine 8.890782 0.407154 -2.025399
Head 8.934372 -5.057173 0.414452
LeftShoulder -6.261448 -50.425563 33.224913
LeftArm 58.735477 -16.061112 -5.647603
LeftForeArm 0.990576 -0.000000 -4.141390
LeftHand -5.527425 -0.000000 13.399584
LeftHandThumb1 -26.253704 0.000000 33.147579
RightShoulder -4.304286 13.294835 -24.990962
RightArm 57.880279 57.816218 10.792053
RightForeArm -31.720305 -0.000000 12.838973
RightHand -10.041693 -0.000000 -19.762744
RightHandThumb1 -24.326973 -0.000000 -32.862282
LeftUpLeg -26.760506 3.869992 -2.274393
LeftLeg 26.418606 -0.000000 -0.000000
LeftFoot -27.088193 26.707826 -13.316891
LeftToeBase 23.002715 -0.000000 -0.000000
RightUpLeg -26.868267 -2.696694 2.742169
RightLeg 27.146865 -0.000000 -0.000000
RightFoot -28.471450 -26.651320 16.585914
RightToeBase 23.599032 -0.000000 -0.000000
255
root 11.442544 34.968406 -23.371217 -152.326557 87.388774 -163.930480
Spine 9.299980 0.364921 -2.042726
Head 9.227435 -5.064343 0.484797
LeftShoulder -5.909704 -50.423862 33.070495
LeftArm 58.613008 -15.762921 -5.497826
LeftForeArm 1.074066 -0.000000 -4.297392
LeftHand -5.420184 -0.000000 12.980058
LeftHandThumb1 -26.253704 0.000000 33.147579
RightShoulder -4.110489 13.180937 -24.985556
RightArm 57.636963 57.559702 10.614465
RightForeArm -31.609723 -0.000000 12.604407
RightHand -9.938956 0.000000 -19.558698
RightHandThumb1 -24.326973 -0.000000 -32.862282
LeftUpLeg -26.926851 3.779568 -2.295934
LeftLeg 25.239266 -0.000000 -0.000000
LeftFoot -26.194258 26.765222 -13.159933
LeftToeBase 22.934201 -0.000000 -0.000000
RightUpLeg -27.029584 -2.775134 2.798289
RightLeg 25.973848 -0.000000 -0.000000
RightFoot -27.619553 -26.791699 16.390936
RightToeBase 23.724842 -0.000000 -0.000000
256
root 11.332947 35.051789 -23.383009 -152.029948 87.492673 -164.246793
Spine 9.630329 0.468627 -2.079293
Head 9.608054 -5.082138 0.476864
LeftShoulder -5.479654 -50.118311 32.697440
LeftArm 58.669436 -15.826258 -5.436617
LeftForeArm 1.277001 0.000000 -4.466570
LeftHand -5.409555 -0.000000 12.516240
LeftHandThumb1 -26.253704 0.000000 33.147579
RightShoulder -3.829388 12.978934 -24.934584
RightArm 57.295971 57.390244 10.233479
RightForeArm -31.571730 -0.000000 12.412877
RightHand -9.890166 -0.000000 -19.220262
RightHandThumb1 -24.326973 -0.000000 -32.862282
LeftUpLeg -27.089300 3.740986 -2.404630
LeftLeg 24.023948 -0.000000 -0.000000
LeftFoot -25.344013 26.930541 -13.031871
LeftToeBase 22.784122 -0.000000 -0.000000
RightUpLeg -27.258503 -2.779072 2.770956
RightLeg 24.838561 -0.000000 -0.000000
RightFoot -26.754427 -26.835334 16.217853
RightToeBase 23.549124 -0.000000 -0.000000
257
root 11.217343 35.127178 -23.379939 -151.148342 87.495637 -163.999044
Spine 9.978071 0.478624 -2.089514
Head 9.877816 -5.052217 0.529910
LeftShoulder -5.155920 -49.909997 32.504623
LeftArm 58.673893 -15.745725 -5.376910
LeftForeArm 1.378785 -0.000000 -4.627392
LeftHand -5.312086 -0.000000 12.221762
LeftHandThumb1 -26.253704 0.000000 33.147579
RightShoulder -3.702760 13.399544 -25.093078
RightArm 57.258281 56.594000 10.508640
RightForeArm -31.819329 -0.000000 12.312811
RightHand -9.963892 -0.000000 -19.264306
RightHandThumb1 -24.326973 -0.000000 -32.862282
LeftUpLeg -27.331524 3.693543 -2.442204
LeftLeg 22.875143 -0.000000 -0.000000
LeftFoot -24.511655 27.034408 -12.877494
LeftToeBase 22.688980 -0.000000 -0.000000
RightUpLeg -27.514177 -2.860477 2.840129
RightLeg 23.706680 -0.000000 -0.000000
RightFoot -25.884260 -26.858378 16.076008
RightToeBase 23.407567 -0.000000 -0.000000
258
root 11.100126 35.197468 -23.380562 -151.372667 87.518249 -164.924231
Spine 10.245623 0.520263 -2.159107
Head 10.218812 -5.065477 0.631279
LeftShoulder -4.725587 -49.704692 32.179091
LeftArm 58.728187 -15.699677 -5.288168
LeftForeArm 1.555079 0.000000 -4.747395
LeftHand -5.177158 -0.000000 11.927019
LeftHandThumb1 -26.253704 0.000000 33.147579
RightShoulder -3.541196 13.583919 -25.156516
RightArm 57.215435 56.027523 10.665144
RightForeArm -32.000751 0.000000 12.155603
RightHand -9.985448 -0.000000 -19.224901
RightHandThumb1 -24.326973 -0.000000 -32.862282
LeftUpLeg -27.631525 3.608838 -2.534009
LeftLeg 21.706377 -0.000000 -0.000000
LeftFoot -23.669653 27.175481 -12.765078
LeftToeBase 22.571641 -0.000000 -0.000000
RightUpLeg -27.852702 -2.932514 2.855254
RightLeg 22.599715 -0.000000 -0.000000
RightFoot -25.033247 -26.882903 15.884111
RightToeBase 23.129401 -0.000000 -0.000000
259
root 10.982380 35.264598 -23.378849 -150.749482 87.521470 -165.020729
Spine 10.504926 0.556483 -2.196283
Head 10.499777 -5.061194 0.786786
LeftShoulder -4.196328 -48.960795 31.632675
LeftArm 58.986128 -16.201790 -5.043883
LeftForeArm 1.649492 -0.000000 -4.978555
LeftHand -5.103556 -0.000000 11.401099
LeftHandThumb1 -26.253704 0.000000 33.147579
RightShoulder -3.195149 13.536329 -25.028056
RightArm 56.563560 55.655706 9.934401
RightForeArm -31.842768 -0.000000 11.945140
RightHand -9.914916 0.000000 -19.040056
RightHandThumb1 -24.326973 -0.000000 -32.862282
LeftUpLeg -27.966229 3.527723 -2.578276
LeftLeg 20.557379 -0.000000 -0.000000
LeftFoot -22.825973 27.269561 -12.655000
LeftToeBase 22.373645 -0.000000 -0.000000
RightUpLeg -28.214549 -3.040877 2.929888
RightLeg 21.482740 -0.000000 -0.000000
RightFoot -24.156175 -26.890964 15.781961
RightToeBase 22.909397 -0.000000 -0.000000
260
root 10.857497 35.322039 -23.372797 -150.347813 87.434763 -165.395140
Spine 10.752021 0.510285 -2.161061
Head 10.673937 -5.077403 0.832383
LeftShoulder -3.859552 -48.623242 31.311612
LeftArm 59.137067 -16.318922 -4.995002
LeftForeArm 1.824399 0.000000 -5.076733
LeftHand -5.081655 -0.000000 11.223560
LeftHandThumb1 -26.253704 0.000000 33.147579
RightShoulder -3.016127 13.734205 -25.082036
RightArm 56.242668 55.004637 9.634121
RightForeArm -31.554186 0.000000 11.623290
RightHand -9.627292 -0.000000 -19.255011
RightHandThumb1 -24.326973 -0.000000 -32.862282
LeftUpLeg -28.426614 3.335999 -2.574993
LeftLeg 19.517649 -0.000000 -0.000000
LeftFoot -22.033796 27.417956 -12.544630
LeftToeBase 22.326583 -0.000000 -0.000000
RightUpLeg -28.655109 -3.206619 3.043909
RightLeg 20.408306 -0.000000 -0.000000
RightFoot -23.335876 -26.996524 15.487424
RightToeBase 22.945804 -0.000000 -0.000000
261
root 10.731016 35.376709 -23.372733 -150.166591 87.457888 -166.023384
Spine 10.964151 0.537721 -2.190764
Head 10.866955 -5.092129 0.870105
LeftShoulder -3.610112 -48.484396 31.048688
LeftArm 59.312147 -16.240625 -5.053254
LeftForeArm 2.076950 0.000000 -5.170425
LeftHand -4.901525 0.000000 11.080902
LeftHandThumb1 -26.253704 0.000000 33.147579
RightShoulder -2.702818 13.146343 -24.886768
RightArm 56.037208 55.211737 9.108801
RightForeArm -31.577908 -0.000000 11.252755
RightHand -9.569122 0.000000 -18.900604
RightHandThumb1 -24.326973 -0.000000 -32.862282
LeftUpLeg -28.870500 3.174428 -2.621723
LeftLeg 18.399258 -0.000000 -0.000000
LeftFoot -21.247000 27.612601 -12.488296
LeftToeBase 22.226098 -0.000000 -0.000000
RightUpLeg -29.151597 -3.300678 3.093972
RightLeg 19.361725 -0.000000 -0.000000
RightFoot -22.478135 -27.007302 15.228084
RightToeBase 22.854922 -0.000000 -0.000000
